# xmcd CD database file
# Copyright (C) 1996 Ti Kan
#
# Track frame offsets:
# 	182
# 	11117
# 	22585
# 	32962
# 	43670
# 	57372
# 	71680
# 	85650
# 	96015
# 	108952
# 	121117
# 	133860
# 	144665
# 	155772
# 	167895
# 	179490
# 	193605
# 	206022
# 	219712
# 	232460
#
# Disc length: 3255 seconds
#
# Revision: 1
# Processed by: cddbd v1.4b41PL1 Copyright (c) Steve Scherf et al.
# Submitted via: DiscPlay 3.4.1
#
DISCID=270cb514
DTITLE=Ray Charles - Great vocalist
DYEAR=1900
DGENRE=
TTITLE0=i wonder who's kissing her now
TTITLE1=let's have a ball
TTITLE2=goin' down slow
TTITLE3=sitting on top of the world
TTITLE4=alone in the city
TTITLE5=blues is my middle name
TTITLE6=this love of mine
TTITLE7=now she's gone
TTITLE8=can anyone ask for more
TTITLE9=see see rider
TTITLE10=rockin' chair blues
TTITLE11=hey now
TTITLE12=a sentimental blues
TTITLE13=can't you see darling
TTITLE14=tell me baby
TTITLE15=baby let me hold your hand
TTITLE16=i won't let you go
TTITLE17=i'm gonna drown myself
TTITLE18=snow is fallin'
TTITLE19=if i give you my love
EXTD=
EXTT0=
EXTT1=
EXTT2=
EXTT3=
EXTT4=
EXTT5=
EXTT6=
EXTT7=
EXTT8=
EXTT9=
EXTT10=
EXTT11=
EXTT12=
EXTT13=
EXTT14=
EXTT15=
EXTT16=
EXTT17=
EXTT18=
EXTT19=
PLAYORDER=
